HIERARCHY
ROOT hip
{
  OFFSET 0 0 0
  CHANNELS 6 Xposition Yposition Zposition Zrotation Yrotation Xrotation
  JOINT abdomen
  {
    OFFSET 0 20.6881 -0.73152
    CHANNELS 3 Zrotation Xrotation Yrotation
    JOINT chest
    {
      OFFSET 0 11.7043 -0.48768
      CHANNELS 3 Zrotation Xrotation Yrotation
      JOINT neck
      {
        OFFSET 0 22.1894 -2.19456
        CHANNELS 3 Zrotation Xrotation Yrotation
        JOINT head
        {
          OFFSET -0.24384 7.07133 1.2192
          CHANNELS 3 Zrotation Xrotation Yrotation
          JOINT leftEye
          {
            OFFSET 4.14528 8.04674 8.04672
            CHANNELS 3 Zrotation Xrotation Yrotation
            End Site
            {
              OFFSET 1 0 0
            }
          }
          JOINT rightEye
          {
            OFFSET -3.6576 8.04674 8.04672
            CHANNELS 3 Zrotation Xrotation Yrotation
            End Site
            {
              OFFSET 1 0 0
            }
          }
        }
      }
      JOINT rCollar
      {
        OFFSET -2.68224 19.2634 -4.8768
        CHANNELS 3 Zrotation Xrotation Yrotation
        JOINT rShldr
        {
          OFFSET -8.77824 -1.95073 1.46304
          CHANNELS 3 Zrotation Xrotation Yrotation
          JOINT rForeArm
          {
            OFFSET -28.1742 -1.7115 0.48768
            CHANNELS 3 Zrotation Xrotation Yrotation
            JOINT rHand
            {
              OFFSET -22.5879 0.773209 7.07136
              CHANNELS 3 Zrotation Xrotation Yrotation
              JOINT rThumb1
              {
                OFFSET -1.2192 -0.487915 3.41376
                CHANNELS 3 Zrotation Xrotation Yrotation
                JOINT rThumb2
                {
                  OFFSET -3.37035 -0.52449 3.41376
                  CHANNELS 3 Zrotation Xrotation Yrotation
                  End Site
                  {
                    OFFSET -1.78271 -1.18214 1.43049
                  }
                }
              }
              JOINT rIndex1
              {
                OFFSET -7.75947 0.938293 5.60832
                CHANNELS 3 Zrotation Xrotation Yrotation
                JOINT rIndex2
                {
                  OFFSET -2.54057 -0.884171 1.56538
                  CHANNELS 3 Zrotation Xrotation Yrotation
                  End Site
                  {
                    OFFSET -1.62519 -0.234802 1.16502
                  }
                }
              }
              JOINT rMid1
              {
                OFFSET -8.24714 1.18213 3.41376
                CHANNELS 3 Zrotation Xrotation Yrotation
                JOINT rMid2
                {
                  OFFSET -3.10165 -0.590103 1.0647
                  CHANNELS 3 Zrotation Xrotation Yrotation
                  End Site
                  {
                    OFFSET -2.48547 -0.328903 0.83742
                  }
                }
              }
              JOINT rRing1
              {
                OFFSET -8.82822 0.546677 1.51678
                CHANNELS 3 Zrotation Xrotation Yrotation
                JOINT rRing2
                {
                  OFFSET -2.60934 -0.819778 -0.0198488
                  CHANNELS 3 Zrotation Xrotation Yrotation
                  End Site
                  {
                    OFFSET -2.33842 -0.294052 0.168128
                  }
                }
              }
              JOINT rPinky1
              {
                OFFSET -8.27202 -0.0477905 -0.4584
                CHANNELS 3 Zrotation Xrotation Yrotation
                JOINT rPinky2
                {
                  OFFSET -1.82734 -0.647385 -0.700984
                  CHANNELS 3 Zrotation Xrotation Yrotation
                  End Site
                  {
                    OFFSET -1.69225 -0.51767 -0.607171
                  }
                }
              }
            }
          }
        }
      }
      JOINT lCollar
      {
        OFFSET 2.68224 19.2634 -4.8768
        CHANNELS 3 Zrotation Xrotation Yrotation
        JOINT lShldr
        {
          OFFSET 8.77824 -1.95073 1.46304
          CHANNELS 3 Zrotation Xrotation Yrotation
          JOINT lForeArm
          {
            OFFSET 28.1742 -1.7115 0.48768
            CHANNELS 3 Zrotation Xrotation Yrotation
            JOINT lHand
            {
              OFFSET 22.5879 0.773209 7.07136
              CHANNELS 3 Zrotation Xrotation Yrotation
              JOINT lThumb1
              {
                OFFSET 1.2192 -0.487915 3.41376
                CHANNELS 3 Zrotation Xrotation Yrotation
                JOINT lThumb2
                {
                  OFFSET 3.37035 -0.52449 3.41376
                  CHANNELS 3 Zrotation Xrotation Yrotation
                  End Site
                  {
                    OFFSET 1.78271 -1.18214 1.43049
                  }
                }
              }
              JOINT lIndex1
              {
                OFFSET 7.75947 0.938293 5.60832
                CHANNELS 3 Zrotation Xrotation Yrotation
                JOINT lIndex2
                {
                  OFFSET 2.54057 -0.884171 1.56538
                  CHANNELS 3 Zrotation Xrotation Yrotation
                  End Site
                  {
                    OFFSET 1.62519 -0.234802 1.16502
                  }
                }
              }
              JOINT lMid1
              {
                OFFSET 8.24714 1.18213 3.41376
                CHANNELS 3 Zrotation Xrotation Yrotation
                JOINT lMid2
                {
                  OFFSET 3.10165 -0.590103 1.0647
                  CHANNELS 3 Zrotation Xrotation Yrotation
                  End Site
                  {
                    OFFSET 2.48547 -0.328903 0.83742
                  }
                }
              }
              JOINT lRing1
              {
                OFFSET 8.82822 0.546677 1.51678
                CHANNELS 3 Zrotation Xrotation Yrotation
                JOINT lRing2
                {
                  OFFSET 2.60934 -0.819778 -0.0198488
                  CHANNELS 3 Zrotation Xrotation Yrotation
                  End Site
                  {
                    OFFSET 2.33842 -0.294052 0.168128
                  }
                }
              }
              JOINT lPinky1
              {
                OFFSET 8.27202 -0.0477905 -0.4584
                CHANNELS 3 Zrotation Xrotation Yrotation
                JOINT lPinky2
                {
                  OFFSET 1.82734 -0.647385 -0.700984
                  CHANNELS 3 Zrotation Xrotation Yrotation
                  End Site
                  {
                    OFFSET 1.69225 -0.51767 -0.607171
                  }
                }
              }
            }
          }
        }
      }
    }
  }
  JOINT rButtock
  {
    OFFSET -8.77824 4.35084 1.2192
    CHANNELS 3 Zrotation Xrotation Yrotation
    JOINT rThigh
    {
      OFFSET 0 -1.70687 -2.19456
      CHANNELS 3 Zrotation Xrotation Yrotation
      JOINT rShin
      {
        OFFSET 0 -36.8199 0.73152
        CHANNELS 3 Zrotation Xrotation Yrotation
        JOINT rFoot
        {
          OFFSET 0.73152 -45.1104 -5.12064
          CHANNELS 3 Zrotation Xrotation Yrotation
          End Site
          {
            OFFSET -1.1221 -3.69964 12.103
          }
        }
      }
    }
  }
  JOINT lButtock
  {
    OFFSET 8.77824 4.35084 1.2192
    CHANNELS 3 Zrotation Xrotation Yrotation
    JOINT lThigh
    {
      OFFSET 0 -1.70687 -2.19456
      CHANNELS 3 Zrotation Xrotation Yrotation
      JOINT lShin
      {
        OFFSET 0 -36.8199 0.73152
        CHANNELS 3 Zrotation Xrotation Yrotation
        JOINT lFoot
        {
          OFFSET -0.73152 -45.1104 -5.12064
          CHANNELS 3 Zrotation Xrotation Yrotation
          End Site
          {
            OFFSET 1.1221 -3.69964 12.103
          }
        }
      }
    }
  }
}
MOTION
Frames:	4
Frame Time:	0.03333
0.003448501229286194 -9.556029736995697 -0.019239354878664017 -3.4051175117492676 2.8483922481536865 6.99948263168335 -2.5034821033477783 13.981325149536133 3.909557342529297 2.5928666591644287 -9.32270622253418 1.339034914970398 -5.226129055023193 15.074419975280762 -3.9851183891296387 8.879701614379883 -24.0701847076416 -6.018603801727295 0.040232766419649124 0.0033912055660039186 0.06396845728158951 0.03839825093746185 0.1030815914273262 -0.020075812935829163 -0.024725235998630524 -0.009121077135205269 -0.052891459316015244 46.35380172729492 37.717864990234375 18.159067153930664 -27.1971435546875 -27.102458953857422 62.52531814575195 -0.07347849756479263 -9.798733711242676 -1.3313206434249878 -0.0788286030292511 -0.0010098533239215612 0.00454981392249465 0.02521291747689247 -0.08326669782400131 0.03926549479365349 0.05422421544790268 -0.03119857795536518 -0.12509050965309143 7.801708698272705 5.489358425140381 0.45483437180519104 0.020566988736391068 -0.005222734995186329 0.07292065024375916 2.921901226043701 1.0096054077148438 0.13132913410663605 -0.045819684863090515 -0.017279280349612236 0.12626293301582336 10.299761772155762 0.7466315031051636 -0.017413772642612457 0.11294171959161758 -0.06942654401063919 -0.017323192209005356 2.136956214904785 -0.7326859831809998 -0.2799054980278015 0.10456793010234833 0.0023050762247294188 -0.06427425146102905 -55.567440032958984 40.386844635009766 -26.05771827697754 26.7217960357666 -25.249300003051758 -59.68524932861328 0.17331913113594055 -12.627060890197754 1.7090020179748535 0.04202873632311821 -0.0042962548322975636 0.09152993559837341 0.03127531334757805 -0.04168935865163803 0.03416824713349342 0.013466819189488888 -0.04598357900977135 0.02577044814825058 -7.699254989624023 5.325411796569824 -0.4712228775024414 -0.06614021211862564 -0.008213589899241924 -0.058382660150527954 -2.86149001121521 0.9019259214401245 -0.10138437151908875 -0.08318102359771729 0.04266875237226486 -0.028866708278656006 -10.267979621887207 0.7285146713256836 -0.13052234053611755 -0.11811206489801407 0.08292129635810852 -0.05012613534927368 -2.2200775146484375 -0.6307170391082764 0.10052502900362015 -0.07306168973445892 0.013948852196335793 -0.03771902620792389 -23.240739822387695 -39.56186294555664 -19.452133178710938 -1.3869484663009644 63.91893005371094 2.4948890209198 -3.8131303787231445 -10.713556289672852 -9.98748779296875 -0.015621117316186428 0.0426667295396328 -0.0465204082429409 28.357242584228516 -37.90715408325195 21.278268814086914 1.2279592752456665 63.85710144042969 -2.3875482082366943 4.4131293296813965 -10.81679630279541 14.023289680480957
0.01088455319404602 -9.564404934644699 -0.03585629165172577 -2.9951467514038086 2.329519033432007 7.6800923347473145 -2.4874842166900635 13.903121948242188 3.983729839324951 2.5396296977996826 -9.397014617919922 1.2605805397033691 -5.184741020202637 15.092230796813965 -3.893505096435547 8.795177459716797 -24.124786376953125 -5.837184906005859 0.022373415529727936 -0.03363746032118797 0.08327799290418625 0.0756801962852478 0.09614592790603638 0.01571611873805523 -0.0350133553147316 -0.02711995504796505 -0.07635631412267685 46.20594787597656 37.750022888183594 18.391128540039062 -27.193933486938477 -27.037134170532227 62.40372085571289 -0.10294316709041595 -9.756922721862793 -1.3268531560897827 -0.061566200107336044 -0.0009783015120774508 0.027899451553821564 0.0155698386952281 -0.02433798275887966 0.09830434620380402 0.06465764343738556 -0.058334387838840485 -0.11409860849380493 7.758769989013672 5.474969387054443 0.45097774267196655 0.016552923247218132 0.011775443330407143 0.08452998101711273 2.9038336277008057 0.9633070826530457 0.0984165370464325 -0.056210264563560486 0.00859864428639412 0.1298118382692337 10.286690711975098 0.7419100403785706 -0.0394158773124218 0.11584073305130005 -0.06219886243343353 0.01935264654457569 2.1251776218414307 -0.7498077750205994 -0.2710525095462799 0.1118888184428215 0.015833834186196327 -0.07249072194099426 -55.829383850097656 40.32416915893555 -25.75446891784668 26.65401268005371 -25.058977127075195 -59.43293380737305 0.12787607312202454 -12.394245147705078 1.6938780546188354 -0.01539326086640358 -0.01783614791929722 0.07422837615013123 0.04074835777282715 -0.05074691399931908 0.0424979068338871 0.039208006113767624 -0.04990358278155327 0.04709256440401077 -7.76874303817749 5.2931647300720215 -0.4359455704689026 -0.09409097582101822 -0.006889068987220526 -0.07143410295248032 -2.848219633102417 0.9297356605529785 -0.07204903662204742 -0.09611404687166214 0.029470084235072136 -0.03914553299546242 -10.244163513183594 0.7423478960990906 -0.12936006486415863 -0.09965071082115173 0.08598262071609497 -0.033206477761268616 -2.221269369125366 -0.636120080947876 0.08054259419441223 -0.06696145981550217 0.0335930697619915 -0.027723021805286407 -23.003963470458984 -39.46152877807617 -19.390819549560547 -1.4945485591888428 63.59004211425781 2.5636701583862305 -3.8514397144317627 -10.61944580078125 -10.082566261291504 -0.0015712130116298795 0.0335925854742527 -0.04229306802153587 28.45041847229004 -37.83472442626953 21.4548282623291 1.2215451002120972 63.564571380615234 -2.3665528297424316 4.447689056396484 -10.713094711303711 14.162473678588867
-0.059034302830696106 -7.829727232456207 0.03588451072573662 4.595216751098633 0.03877247869968414 11.57141399383545 -2.238229990005493 17.30532455444336 -2.5153727531433105 3.3812615871429443 -12.163093566894531 -0.503409743309021 -0.10481248795986176 13.637770652770996 10.468400001525879 3.0713741779327393 -22.880329132080078 20.366943359375 0.10814753919839859 0.03899442031979561 0.7300161123275757 0.07284495234489441 -0.04276461899280548 -0.17459845542907715 -0.2702576518058777 0.21051141619682312 -0.410261332988739 108.1162109375 42.57382583618164 -54.9086799621582 -27.77498435974121 -40.68811798095703 84.78638458251953 -15.360710144042969 -70.70026397705078 -22.242034912109375 0.17258547246456146 -0.16814512014389038 0.21169094741344452 0.026235414668917656 -0.5502459406852722 -0.04361683502793312 -0.02139703370630741 0.1189354807138443 0.1731003224849701 7.701178550720215 5.545753479003906 0.5091620683670044 0.03596138209104538 -0.2653159201145172 0.06899283826351166 2.560663938522339 1.0060539245605469 0.2651602029800415 -0.1897544115781784 0.05872146040201187 0.10189948230981827 10.743086814880371 0.7704813480377197 -0.33470380306243896 0.22510133683681488 -0.4178174138069153 -0.10080008953809738 2.275059223175049 -0.8078041672706604 -0.5068202614784241 -0.09839172661304474 0.03358430415391922 0.08540818840265274 -50.955989837646484 -21.925050735473633 -81.774169921875 26.163480758666992 -24.44249725341797 -58.19023895263672 8.30992317199707 -59.20884323120117 14.170231819152832 0.4003278911113739 -0.013993466272950172 0.11565805226564407 -0.1629965752363205 0.1403559297323227 0.31505322456359863 0.21597367525100708 -0.0933878943324089 -0.19805428385734558 -7.754292011260986 5.070013046264648 -0.5182296633720398 0.21870705485343933 0.23604406416416168 -0.171881303191185 -2.842437744140625 1.2159030437469482 -0.21463580429553986 -0.494021475315094 0.22569291293621063 0.06938880681991577 -10.185040473937988 0.5594643354415894 -0.08656656742095947 0.004012449644505978 0.010968301445245743 -0.1712605208158493 -2.038586378097534 -0.8288907408714294 -0.0800311267375946 -0.21009217202663422 -0.28820738196372986 -0.04955977201461792 -65.04342651367188 -58.52206802368164 -56.521331787109375 -174.7921905517578 73.94696044921875 175.60008239746094 1.1085491180419922 -25.422170639038086 4.4517364501953125 -0.1689484715461731 0.12535269558429718 0.27393972873687744 74.33625030517578 -47.99602508544922 68.07714080810547 174.67088317871094 75.60150909423828 -175.80831909179688 3.322876214981079 -26.92333984375 3.124321222305298
-0.013342313468456268 -7.796153426170349 0.08623804897069931 1.0505374670028687 -1.5693683624267578 9.443474769592285 -4.340510368347168 12.118642807006836 -3.552724599838257 4.376412391662598 -11.827920913696289 -0.752971887588501 -0.2864261269569397 12.059165954589844 9.65985107421875 3.579911470413208 -21.510496139526367 18.88042640686035 0.1047205775976181 0.0728311762213707 0.2733461260795593 0.16686317324638367 -0.004232559818774462 0.23053421080112457 -0.3019345998764038 0.008074633777141571 0.038847871124744415 109.01255798339844 41.495208740234375 -57.440616607666016 -27.783981323242188 -40.15082931518555 83.00838470458984 -18.152334213256836 -72.46337890625 -25.333877563476562 -0.11504103243350983 -0.08686522394418716 0.1582263708114624 -0.07935911417007446 0.043639857321977615 0.0689118504524231 -0.002034418983384967 0.16895918548107147 -0.13412980735301971 7.571203708648682 5.743180751800537 0.756506085395813 -0.3073172867298126 -0.223054438829422 -0.2927970588207245 2.7489826679229736 0.6510292887687683 0.007309845183044672 -0.450344443321228 -0.0576508492231369 -0.03495530039072037 10.65164566040039 0.7512924075126648 0.0039680092595517635 0.31361308693885803 -0.25815609097480774 -0.09620478749275208 2.047579526901245 -0.8004380464553833 -0.4662584662437439 -0.003589956322684884 -0.015613239258527756 0.1654716283082962 -54.05778503417969 -23.02188491821289 -83.85399627685547 26.384765625 -25.069730758666992 -59.855411529541016 10.146756172180176 -64.35403442382812 16.304012298583984 0.14194419980049133 0.23078826069831848 0.22194112837314606 -0.006166545208543539 -0.031930435448884964 -0.019217226654291153 0.16946062445640564 0.07971924543380737 0.08904380351305008 -7.709029197692871 5.472348690032959 -0.5197436809539795 -0.06659315526485443 0.22657497227191925 0.200941264629364 -3.001209259033203 1.0187498331069946 -0.09285905957221985 -0.5929597616195679 0.5254290699958801 -0.13526131212711334 -10.266708374023438 0.7444716095924377 -0.012527215294539928 -0.24512256681919098 -0.3104703724384308 0.18803094327449799 -2.118795156478882 -0.7012584805488586 -0.1846623718738556 -0.16612796485424042 0.07837775349617004 -0.27416327595710754 -65.04022216796875 -60.699485778808594 -51.923091888427734 -173.74472045898438 76.10619354248047 174.34725952148438 1.0219615697860718 -27.46762466430664 4.275492191314697 0.31649741530418396 0.20194111764431 0.20153199136257172 74.32485961914062 -46.85391616821289 65.03012084960938 174.23106384277344 75.42089080810547 -175.52850341796875 2.673578977584839 -30.59073257446289 3.6986167430877686
